<?xml version="1.0" encoding="UTF-8"?>
<svg xmlns="http://www.w3.org/2000/svg" 
     width="1374" height="1509" 
     viewBox="0 0 1374 1509">
  <!--
    The Harrell Fire Cape
    Harrell family interpretation of the OSRS fire cape — created April 2026
    by Nathan Harrell and TC.
    
    Two layers for Lightburn:
      layer-cut    (red)  — outer silhouette, SPEED CUT
      layer-flames (blue) — flame blobs, ENGRAVE or FULL CUT
    
    Designed for: WS2812B LED panel with laser-cut wood overlay
    Panel size: ~300mm x ~330mm recommended
  -->
  <defs>
    <clipPath id="cape-clip" transform="translate(0,1509) scale(0.1,-0.1)">
      <path d="M12188 15081 c-1 -5 -290 -89 -640 -187 l-638 -178 0 -305 0 -306
183 -183 183 -183 64 367 65 367 355 119 c195 65 361 118 368 118 17 0 1362
-1217 1362 -1233 0 -7 -28 -174 -62 -372 l-63 -361 -305 -244 c-168 -135 -310
-245 -316 -245 -6 0 -311 276 -679 614 -578 531 -1632 1471 -1651 1471 -3 0
-915 -665 -2027 -1477 l-2022 -1478 -1780 -1170 -1780 -1170 -860 -1035 -860
-1035 -535 -1325 c-294 -729 -538 -1326 -542 -1328 -4 -2 -8 -14 -8 -26 l0
-22 548 -120 547 -119 430 -1164 430 -1165 1225 -245 1225 -245 184 -608 c186
-614 193 -633 225 -594 6 7 578 363 1271 791 l1260 778 852 851 852 850 1103
2016 1102 2015 1234 2090 c679 1150 1240 2093 1246 2098 8 5 7 10 -4 16 -59
38 -490 347 -490 352 0 3 84 89 188 192 l187 186 54 678 c30 373 58 680 63
681 4 2 8 31 7 65 l-1 62 -639 590 c-352 325 -681 629 -732 677 l-92 88 -42 0
c-23 0 -43 -4 -45 -9z m702 -2936 c0 -8 -7 -15 -15 -15 -8 0 -15 7 -15 15 0 8
7 15 15 15 8 0 15 -7 15 -15z m40 -30 c0 -8 -7 -15 -15 -15 -8 0 -15 7 -15 15
0 8 7 15 15 15 8 0 15 -7 15 -15z" />
    </clipPath>
  </defs>

  <!-- LAYER 1: Cape silhouette — CUT line (red) -->
  <g id="layer-cut" 
     transform="translate(0,1509) scale(0.1,-0.1)" 
     fill="none" stroke="#FF0000" stroke-width="12">
    <path d="M12188 15081 c-1 -5 -290 -89 -640 -187 l-638 -178 0 -305 0 -306
183 -183 183 -183 64 367 65 367 355 119 c195 65 361 118 368 118 17 0 1362
-1217 1362 -1233 0 -7 -28 -174 -62 -372 l-63 -361 -305 -244 c-168 -135 -310
-245 -316 -245 -6 0 -311 276 -679 614 -578 531 -1632 1471 -1651 1471 -3 0
-915 -665 -2027 -1477 l-2022 -1478 -1780 -1170 -1780 -1170 -860 -1035 -860
-1035 -535 -1325 c-294 -729 -538 -1326 -542 -1328 -4 -2 -8 -14 -8 -26 l0
-22 548 -120 547 -119 430 -1164 430 -1165 1225 -245 1225 -245 184 -608 c186
-614 193 -633 225 -594 6 7 578 363 1271 791 l1260 778 852 851 852 850 1103
2016 1102 2015 1234 2090 c679 1150 1240 2093 1246 2098 8 5 7 10 -4 16 -59
38 -490 347 -490 352 0 3 84 89 188 192 l187 186 54 678 c30 373 58 680 63
681 4 2 8 31 7 65 l-1 62 -639 590 c-352 325 -681 629 -732 677 l-92 88 -42 0
c-23 0 -43 -4 -45 -9z m702 -2936 c0 -8 -7 -15 -15 -15 -8 0 -15 7 -15 15 0 8
7 15 15 15 8 0 15 -7 15 -15z m40 -30 c0 -8 -7 -15 -15 -15 -8 0 -15 7 -15 15
0 8 7 15 15 15 8 0 15 -7 15 -15z" />
  </g>

  <!-- LAYER 2: Flame blobs — ENGRAVE/CUT (blue) -->
  <g id="layer-flames" 
     clip-path="url(#cape-clip)" 
     fill="#0000FF" stroke="none">
    <path d="M 570.0,1264.0 C 607.1,1244.1 607.0,1130.5 594.3,1064.7 C 558.1,1130.5 532.9,1244.1 570.0,1264.0 Z" />
    <path d="M 724.0,1228.0 C 767.8,1213.7 762.8,1132.1 749.8,1084.8 C 711.8,1132.1 680.2,1213.7 724.0,1228.0 Z" />
    <path d="M 302.0,1180.0 C 355.6,1167.0 347.0,1092.7 327.4,1049.7 C 284.3,1092.7 248.4,1167.0 302.0,1180.0 Z" />
    <path d="M 296.0,1240.0 C 336.1,1224.1 337.6,1133.2 324.3,1080.6 C 283.4,1133.2 255.9,1224.1 296.0,1240.0 Z" />
    <path d="M 380.0,1186.0 C 421.5,1168.6 411.6,1069.7 398.1,1012.4 C 367.8,1069.7 338.5,1168.6 380.0,1186.0 Z" />
    <path d="M 596.0,1342.0 C 633.4,1327.3 632.8,1243.2 623.7,1194.5 C 587.1,1243.2 558.6,1327.3 596.0,1342.0 Z" />
    <path d="M 362.0,1074.0 C 401.9,1055.9 407.2,952.8 396.7,893.1 C 351.6,952.8 322.1,1055.9 362.0,1074.0 Z" />
    <path d="M 310.0,1080.0 C 355.8,1065.5 349.0,982.6 335.0,934.7 C 297.0,982.6 264.2,1065.5 310.0,1080.0 Z" />
    <path d="M 528.0,1232.0 C 557.9,1214.6 566.1,1115.6 558.9,1058.3 C 520.6,1115.6 498.1,1214.6 528.0,1232.0 Z" />
    <path d="M 530.0,1042.0 C 579.8,1025.3 576.7,930.0 558.2,874.9 C 513.0,930.0 480.2,1025.3 530.0,1042.0 Z" />
    <path d="M 674.0,1140.0 C 723.0,1117.2 729.2,987.4 719.5,912.2 C 663.8,987.4 625.0,1117.2 674.0,1140.0 Z" />
    <path d="M 644.0,1076.0 C 679.0,1057.3 682.7,950.6 673.0,888.9 C 634.5,950.6 609.0,1057.3 644.0,1076.0 Z" />
    <path d="M 490.0,1110.0 C 524.9,1087.3 532.7,958.2 523.6,883.4 C 480.9,958.2 455.1,1087.3 490.0,1110.0 Z" />
    <path d="M 612.0,1092.0 C 658.9,1074.0 657.0,971.3 640.0,911.8 C 596.4,971.3 565.1,1074.0 612.0,1092.0 Z" />
    <path d="M 442.0,1134.0 C 475.2,1119.1 478.5,1033.9 467.8,984.5 C 431.8,1033.9 408.8,1119.1 442.0,1134.0 Z" />
    <path d="M 738.0,1170.0 C 786.5,1156.1 775.0,1077.0 752.6,1031.2 C 718.5,1077.0 689.5,1156.1 738.0,1170.0 Z" />
    <path d="M 616.0,1126.0 C 651.1,1105.7 656.3,989.9 647.9,922.9 C 607.5,989.9 580.9,1105.7 616.0,1126.0 Z" />
    <path d="M 242.0,1152.0 C 292.2,1128.3 295.7,993.2 284.5,915.0 C 230.7,993.2 191.8,1128.3 242.0,1152.0 Z" />
    <path d="M 480.0,1306.0 C 509.8,1284.4 515.7,1161.1 509.2,1089.7 C 473.2,1161.1 450.2,1284.4 480.0,1306.0 Z" />
    <path d="M 370.0,1070.0 C 400.4,1053.6 399.8,959.9 388.9,905.6 C 360.0,959.9 339.6,1053.6 370.0,1070.0 Z" />
    <path d="M 418.0,1352.0 C 463.0,1329.3 466.2,1199.9 455.9,1125.0 C 407.6,1199.9 373.0,1329.3 418.0,1352.0 Z" />
    <path d="M 608.0,1280.0 C 648.7,1261.9 652.9,1158.5 642.2,1098.6 C 597.4,1158.5 567.3,1261.9 608.0,1280.0 Z" />
    <path d="M 974.0,862.0 C 999.8,851.7 997.3,793.2 989.2,759.4 C 966.5,793.2 948.2,851.7 974.0,862.0 Z" />
    <path d="M 750.0,976.0 C 780.3,958.0 780.3,855.7 772.4,796.4 C 742.3,855.7 719.7,958.0 750.0,976.0 Z" />
    <path d="M 780.0,882.0 C 810.8,867.1 813.1,782.4 808.1,733.3 C 774.6,782.4 749.2,867.1 780.0,882.0 Z" />
    <path d="M 686.0,810.0 C 713.0,793.7 718.1,701.0 713.7,647.3 C 681.0,701.0 659.0,793.7 686.0,810.0 Z" />
    <path d="M 576.0,820.0 C 605.6,803.1 602.5,706.6 595.0,650.7 C 568.8,706.6 546.4,803.1 576.0,820.0 Z" />
    <path d="M 586.0,852.0 C 624.5,841.6 613.0,782.5 599.6,748.3 C 574.1,782.5 547.5,841.6 586.0,852.0 Z" />
    <path d="M 490.0,934.0 C 512.8,918.7 518.9,831.8 516.0,781.5 C 486.4,831.8 467.2,918.7 490.0,934.0 Z" />
    <path d="M 272.0,960.0 C 298.3,943.2 310.4,847.3 306.3,791.8 C 267.1,847.3 245.7,943.2 272.0,960.0 Z" />
    <path d="M 344.0,892.0 C 370.6,879.5 370.6,808.2 361.6,766.9 C 335.6,808.2 317.4,879.5 344.0,892.0 Z" />
    <path d="M 282.0,1026.0 C 314.9,1015.6 310.5,956.6 296.5,922.4 C 269.5,956.6 249.1,1015.6 282.0,1026.0 Z" />
    <path d="M 996.0,846.0 C 1024.3,830.9 1025.3,744.7 1016.1,694.8 C 987.3,744.7 967.7,830.9 996.0,846.0 Z" />
    <path d="M 782.0,1024.0 C 813.3,1006.7 815.3,907.8 808.0,850.5 C 774.7,907.8 750.7,1006.7 782.0,1024.0 Z" />
    <path d="M 912.0,968.0 C 938.8,957.6 934.0,898.1 925.1,863.7 C 903.9,898.1 885.2,957.6 912.0,968.0 Z" />
    <path d="M 200.0,860.0 C 230.2,842.6 230.8,743.2 224.0,685.7 C 193.2,743.2 169.8,842.6 200.0,860.0 Z" />
    <path d="M 532.0,926.0 C 558.7,912.6 558.9,836.0 550.8,791.7 C 524.3,836.0 505.3,912.6 532.0,926.0 Z" />
    <path d="M 412.0,1034.0 C 442.1,1019.3 442.3,935.2 436.2,886.6 C 405.7,935.2 381.9,1019.3 412.0,1034.0 Z" />
    <path d="M 1002.0,840.0 C 1040.4,829.1 1032.8,767.2 1021.4,731.3 C 991.4,767.2 963.6,829.1 1002.0,840.0 Z" />
    <path d="M 332.0,996.0 C 356.0,978.2 369.8,876.8 368.6,818.0 C 329.4,876.8 308.0,978.2 332.0,996.0 Z" />
    <path d="M 664.0,992.0 C 687.3,975.5 694.6,881.5 690.0,827.0 C 659.0,881.5 640.7,975.5 664.0,992.0 Z" />
    <path d="M 272.0,934.0 C 304.5,917.3 311.8,822.1 303.4,767.0 C 263.5,822.1 239.5,917.3 272.0,934.0 Z" />
    <path d="M 938.0,764.0 C 960.8,752.1 958.4,684.6 950.4,645.5 C 930.6,684.6 915.2,752.1 938.0,764.0 Z" />
    <path d="M 428.0,984.0 C 469.2,968.3 463.6,878.9 451.8,827.2 C 417.0,878.9 386.8,968.3 428.0,984.0 Z" />
    <path d="M 870.0,858.0 C 894.5,846.6 893.9,781.8 884.8,744.2 C 861.7,781.8 845.5,846.6 870.0,858.0 Z" />
    <path d="M 252.0,772.0 C 275.4,758.6 282.4,682.4 277.5,638.3 C 246.8,682.4 228.6,758.6 252.0,772.0 Z" />
    <path d="M 692.0,522.0 C 715.1,510.9 716.8,447.8 711.5,411.3 C 686.7,447.8 668.9,510.9 692.0,522.0 Z" />
    <path d="M 1090.0,534.0 C 1109.5,520.0 1108.3,440.0 1103.3,393.7 C 1085.1,440.0 1070.5,520.0 1090.0,534.0 Z" />
    <path d="M 716.0,662.0 C 743.9,649.2 741.0,576.2 731.9,534.0 C 707.6,576.2 688.1,649.2 716.0,662.0 Z" />
    <path d="M 382.0,718.0 C 410.3,706.5 408.4,641.1 401.2,603.2 C 375.1,641.1 353.7,706.5 382.0,718.0 Z" />
    <path d="M 628.0,634.0 C 651.3,619.5 651.2,536.7 642.7,488.8 C 620.1,536.7 604.7,619.5 628.0,634.0 Z" />
    <path d="M 1014.0,544.0 C 1030.9,530.5 1035.2,453.5 1032.4,408.9 C 1010.8,453.5 997.1,530.5 1014.0,544.0 Z" />
    <path d="M 558.0,694.0 C 583.9,683.6 579.4,624.3 570.5,590.0 C 549.9,624.3 532.1,683.6 558.0,694.0 Z" />
    <path d="M 778.0,606.0 C 805.3,591.5 801.5,508.7 793.0,460.8 C 770.1,508.7 750.7,591.5 778.0,606.0 Z" />
    <path d="M 990.0,618.0 C 1016.7,603.7 1022.8,521.9 1017.8,474.5 C 984.5,521.9 963.3,603.7 990.0,618.0 Z" />
    <path d="M 462.0,634.0 C 482.7,619.5 489.6,536.9 488.3,489.0 C 459.8,536.9 441.3,619.5 462.0,634.0 Z" />
    <path d="M 740.0,760.0 C 767.0,748.7 764.9,684.2 754.6,646.9 C 730.6,684.2 713.0,748.7 740.0,760.0 Z" />
    <path d="M 422.0,656.0 C 443.3,643.1 447.2,569.6 443.2,527.0 C 417.7,569.6 400.7,643.1 422.0,656.0 Z" />
    <path d="M 432.0,700.0 C 450.0,690.7 450.0,637.6 445.3,606.9 C 427.4,637.6 414.0,690.7 432.0,700.0 Z" />
    <path d="M 790.0,542.0 C 811.3,531.1 808.2,468.7 800.3,432.6 C 782.8,468.7 768.7,531.1 790.0,542.0 Z" />
    <path d="M 394.0,642.0 C 418.5,629.6 422.0,558.8 418.5,517.8 C 390.0,558.8 369.5,629.6 394.0,642.0 Z" />
    <path d="M 464.0,706.0 C 491.6,693.4 492.4,621.6 483.2,580.1 C 455.4,621.6 436.4,693.4 464.0,706.0 Z" />
    <path d="M 912.0,528.0 C 946.3,514.0 938.9,434.0 928.2,387.7 C 902.2,434.0 877.7,514.0 912.0,528.0 Z" />
    <path d="M 312.0,700.0 C 336.6,688.9 333.5,625.4 324.4,588.7 C 303.8,625.4 287.4,688.9 312.0,700.0 Z" />
    <path d="M 700.0,598.0 C 720.7,586.3 724.6,519.6 720.3,481.0 C 695.5,519.6 679.3,586.3 700.0,598.0 Z" />
    <path d="M 1126.0,630.0 C 1151.9,616.0 1150.6,536.0 1141.9,489.7 C 1117.9,536.0 1100.1,616.0 1126.0,630.0 Z" />
    <path d="M 1244.0,508.0 C 1261.5,496.7 1262.1,432.0 1257.9,394.5 C 1239.9,432.0 1226.5,496.7 1244.0,508.0 Z" />
    <path d="M 1148.0,508.0 C 1167.4,497.3 1164.3,436.5 1157.5,401.4 C 1141.8,436.5 1128.6,497.3 1148.0,508.0 Z" />
    <path d="M 1186.0,358.0 C 1206.5,349.9 1208.3,304.0 1202.2,277.4 C 1180.1,304.0 1165.5,349.9 1186.0,358.0 Z" />
    <path d="M 730.0,366.0 C 749.7,359.4 747.4,321.6 741.9,299.8 C 724.9,321.6 710.3,359.4 730.0,366.0 Z" />
    <path d="M 1034.0,424.0 C 1047.0,417.5 1048.1,380.7 1045.4,359.3 C 1031.2,380.7 1021.0,417.5 1034.0,424.0 Z" />
    <path d="M 1104.0,332.0 C 1116.8,321.2 1124.9,259.8 1124.2,224.3 C 1102.5,259.8 1091.2,321.2 1104.0,332.0 Z" />
    <path d="M 1284.0,348.0 C 1302.6,339.3 1303.3,289.8 1298.3,261.1 C 1279.1,289.8 1265.4,339.3 1284.0,348.0 Z" />
    <path d="M 828.0,380.0 C 844.3,371.9 841.4,325.7 835.7,298.9 C 822.8,325.7 811.7,371.9 828.0,380.0 Z" />
    <path d="M 1304.0,394.0 C 1315.7,384.3 1320.2,328.7 1318.5,296.5 C 1301.9,328.7 1292.3,384.3 1304.0,394.0 Z" />
    <path d="M 978.0,430.0 C 997.2,422.2 994.2,377.7 987.8,351.9 C 972.2,377.7 958.8,422.2 978.0,430.0 Z" />
    <path d="M 890.0,482.0 C 907.4,472.0 913.1,414.8 911.2,381.8 C 887.4,414.8 872.6,472.0 890.0,482.0 Z" />
    <path d="M 1062.0,314.0 C 1076.4,304.7 1075.3,251.6 1071.5,220.8 C 1058.4,251.6 1047.6,304.7 1062.0,314.0 Z" />
    <path d="M 1072.0,492.0 C 1091.6,483.0 1095.2,431.6 1089.5,401.9 C 1066.5,431.6 1052.4,483.0 1072.0,492.0 Z" />
    <path d="M 492.0,516.0 C 507.7,508.5 510.3,465.7 507.1,440.9 C 488.6,465.7 476.3,508.5 492.0,516.0 Z" />
    <path d="M 712.0,518.0 C 732.1,508.7 729.4,456.0 724.0,425.5 C 706.9,456.0 691.9,508.7 712.0,518.0 Z" />
    <path d="M 694.0,500.0 C 710.3,493.1 708.8,453.8 702.5,431.1 C 688.3,453.8 677.7,493.1 694.0,500.0 Z" />
    <path d="M 1076.0,288.0 C 1082.6,282.5 1086.2,250.9 1086.1,232.6 C 1075.4,250.9 1069.4,282.5 1076.0,288.0 Z" />
    <path d="M 1022.0,210.0 C 1030.2,203.5 1031.9,166.4 1030.9,144.9 C 1020.8,166.4 1013.8,203.5 1022.0,210.0 Z" />
    <path d="M 902.0,208.0 C 910.9,204.2 908.8,182.7 905.2,170.3 C 898.9,182.7 893.1,204.2 902.0,208.0 Z" />
    <path d="M 1048.0,114.0 C 1057.6,107.4 1060.5,70.0 1059.0,48.3 C 1046.3,70.0 1038.4,107.4 1048.0,114.0 Z" />
    <path d="M 956.0,282.0 C 965.3,276.7 968.7,246.5 967.8,229.0 C 954.7,246.5 946.7,276.7 956.0,282.0 Z" />
    <path d="M 1116.0,66.0 C 1126.1,61.0 1128.0,32.8 1126.6,16.4 C 1114.4,32.8 1105.9,61.0 1116.0,66.0 Z" />
    <path d="M 1058.0,160.0 C 1065.5,154.3 1068.1,121.9 1066.4,103.1 C 1056.2,121.9 1050.5,154.3 1058.0,160.0 Z" />
    <path d="M 880.0,286.0 C 887.2,279.8 892.5,244.4 892.6,223.9 C 879.6,244.4 872.8,279.8 880.0,286.0 Z" />
    <path d="M 966.0,170.0 C 974.2,165.0 974.2,136.6 971.8,120.1 C 963.8,136.6 957.8,165.0 966.0,170.0 Z" />
    <path d="M 888.0,270.0 C 901.4,264.9 900.8,235.7 897.1,218.8 C 884.4,235.7 874.6,264.9 888.0,270.0 Z" />
  </g>

</svg>